<?xml version="1.0" encoding="utf-8" standalone="no"?>
<!DOCTYPE svg PUBLIC "-//W3C//DTD SVG 1.1//EN"
  "http://www.w3.org/Graphics/SVG/1.1/DTD/svg11.dtd">
<!-- Created with matplotlib (https://matplotlib.org/) -->
<svg height="345.6pt" version="1.1" viewBox="0 0 460.8 345.6" width="460.8pt" xmlns="http://www.w3.org/2000/svg" xmlns:xlink="http://www.w3.org/1999/xlink">
 <defs>
  <style type="text/css">
*{stroke-linecap:butt;stroke-linejoin:round;}
  </style>
 </defs>
 <g id="figure_1">
  <g id="patch_1">
   <path d="M 0 345.6 
L 460.8 345.6 
L 460.8 0 
L 0 0 
z
" style="fill:#ffffff;"/>
  </g>
  <g id="axes_1">
   <g id="patch_2">
    <path d="M 33.64 317.72 
L 447.48 317.72 
L 447.48 13.32 
L 33.64 13.32 
z
" style="fill:#e5e5e5;"/>
   </g>
   <g id="matplotlib.axis_1">
    <g id="xtick_1">
     <g id="line2d_1">
      <path clip-path="url(#pd9e8b05eaa)" d="M 52.450909 317.72 
L 52.450909 13.32 
" style="fill:none;stroke:#ffffff;stroke-linecap:square;stroke-width:0.8;"/>
     </g>
     <g id="line2d_2">
      <defs>
       <path d="M 0 0 
L 0 3.5 
" id="mb3dc11773b" style="stroke:#555555;stroke-width:0.8;"/>
      </defs>
      <g>
       <use style="fill:#555555;stroke:#555555;stroke-width:0.8;" x="52.450909" xlink:href="#mb3dc11773b" y="317.72"/>
      </g>
     </g>
     <g id="text_1">
      <!-- 0.0 -->
      <defs>
       <path d="M 31.78125 66.40625 
Q 24.171875 66.40625 20.328125 58.90625 
Q 16.5 51.421875 16.5 36.375 
Q 16.5 21.390625 20.328125 13.890625 
Q 24.171875 6.390625 31.78125 6.390625 
Q 39.453125 6.390625 43.28125 13.890625 
Q 47.125 21.390625 47.125 36.375 
Q 47.125 51.421875 43.28125 58.90625 
Q 39.453125 66.40625 31.78125 66.40625 
z
M 31.78125 74.21875 
Q 44.046875 74.21875 50.515625 64.515625 
Q 56.984375 54.828125 56.984375 36.375 
Q 56.984375 17.96875 50.515625 8.265625 
Q 44.046875 -1.421875 31.78125 -1.421875 
Q 19.53125 -1.421875 13.0625 8.265625 
Q 6.59375 17.96875 6.59375 36.375 
Q 6.59375 54.828125 13.0625 64.515625 
Q 19.53125 74.21875 31.78125 74.21875 
z
" id="DejaVuSans-48"/>
       <path d="M 10.6875 12.40625 
L 21 12.40625 
L 21 0 
L 10.6875 0 
z
" id="DejaVuSans-46"/>
      </defs>
      <g style="fill:#555555;" transform="translate(44.499347 332.318437)scale(0.1 -0.1)">
       <use xlink:href="#DejaVuSans-48"/>
       <use x="63.623047" xlink:href="#DejaVuSans-46"/>
       <use x="95.410156" xlink:href="#DejaVuSans-48"/>
      </g>
     </g>
    </g>
    <g id="xtick_2">
     <g id="line2d_3">
      <path clip-path="url(#pd9e8b05eaa)" d="M 127.694545 317.72 
L 127.694545 13.32 
" style="fill:none;stroke:#ffffff;stroke-linecap:square;stroke-width:0.8;"/>
     </g>
     <g id="line2d_4">
      <g>
       <use style="fill:#555555;stroke:#555555;stroke-width:0.8;" x="127.694545" xlink:href="#mb3dc11773b" y="317.72"/>
      </g>
     </g>
     <g id="text_2">
      <!-- 0.2 -->
      <defs>
       <path d="M 19.1875 8.296875 
L 53.609375 8.296875 
L 53.609375 0 
L 7.328125 0 
L 7.328125 8.296875 
Q 12.9375 14.109375 22.625 23.890625 
Q 32.328125 33.6875 34.8125 36.53125 
Q 39.546875 41.84375 41.421875 45.53125 
Q 43.3125 49.21875 43.3125 52.78125 
Q 43.3125 58.59375 39.234375 62.25 
Q 35.15625 65.921875 28.609375 65.921875 
Q 23.96875 65.921875 18.8125 64.3125 
Q 13.671875 62.703125 7.8125 59.421875 
L 7.8125 69.390625 
Q 13.765625 71.78125 18.9375 73 
Q 24.125 74.21875 28.421875 74.21875 
Q 39.75 74.21875 46.484375 68.546875 
Q 53.21875 62.890625 53.21875 53.421875 
Q 53.21875 48.921875 51.53125 44.890625 
Q 49.859375 40.875 45.40625 35.40625 
Q 44.1875 33.984375 37.640625 27.21875 
Q 31.109375 20.453125 19.1875 8.296875 
z
" id="DejaVuSans-50"/>
      </defs>
      <g style="fill:#555555;" transform="translate(119.742983 332.318437)scale(0.1 -0.1)">
       <use xlink:href="#DejaVuSans-48"/>
       <use x="63.623047" xlink:href="#DejaVuSans-46"/>
       <use x="95.410156" xlink:href="#DejaVuSans-50"/>
      </g>
     </g>
    </g>
    <g id="xtick_3">
     <g id="line2d_5">
      <path clip-path="url(#pd9e8b05eaa)" d="M 202.938182 317.72 
L 202.938182 13.32 
" style="fill:none;stroke:#ffffff;stroke-linecap:square;stroke-width:0.8;"/>
     </g>
     <g id="line2d_6">
      <g>
       <use style="fill:#555555;stroke:#555555;stroke-width:0.8;" x="202.938182" xlink:href="#mb3dc11773b" y="317.72"/>
      </g>
     </g>
     <g id="text_3">
      <!-- 0.4 -->
      <defs>
       <path d="M 37.796875 64.3125 
L 12.890625 25.390625 
L 37.796875 25.390625 
z
M 35.203125 72.90625 
L 47.609375 72.90625 
L 47.609375 25.390625 
L 58.015625 25.390625 
L 58.015625 17.1875 
L 47.609375 17.1875 
L 47.609375 0 
L 37.796875 0 
L 37.796875 17.1875 
L 4.890625 17.1875 
L 4.890625 26.703125 
z
" id="DejaVuSans-52"/>
      </defs>
      <g style="fill:#555555;" transform="translate(194.986619 332.318437)scale(0.1 -0.1)">
       <use xlink:href="#DejaVuSans-48"/>
       <use x="63.623047" xlink:href="#DejaVuSans-46"/>
       <use x="95.410156" xlink:href="#DejaVuSans-52"/>
      </g>
     </g>
    </g>
    <g id="xtick_4">
     <g id="line2d_7">
      <path clip-path="url(#pd9e8b05eaa)" d="M 278.181818 317.72 
L 278.181818 13.32 
" style="fill:none;stroke:#ffffff;stroke-linecap:square;stroke-width:0.8;"/>
     </g>
     <g id="line2d_8">
      <g>
       <use style="fill:#555555;stroke:#555555;stroke-width:0.8;" x="278.181818" xlink:href="#mb3dc11773b" y="317.72"/>
      </g>
     </g>
     <g id="text_4">
      <!-- 0.6 -->
      <defs>
       <path d="M 33.015625 40.375 
Q 26.375 40.375 22.484375 35.828125 
Q 18.609375 31.296875 18.609375 23.390625 
Q 18.609375 15.53125 22.484375 10.953125 
Q 26.375 6.390625 33.015625 6.390625 
Q 39.65625 6.390625 43.53125 10.953125 
Q 47.40625 15.53125 47.40625 23.390625 
Q 47.40625 31.296875 43.53125 35.828125 
Q 39.65625 40.375 33.015625 40.375 
z
M 52.59375 71.296875 
L 52.59375 62.3125 
Q 48.875 64.0625 45.09375 64.984375 
Q 41.3125 65.921875 37.59375 65.921875 
Q 27.828125 65.921875 22.671875 59.328125 
Q 17.53125 52.734375 16.796875 39.40625 
Q 19.671875 43.65625 24.015625 45.921875 
Q 28.375 48.1875 33.59375 48.1875 
Q 44.578125 48.1875 50.953125 41.515625 
Q 57.328125 34.859375 57.328125 23.390625 
Q 57.328125 12.15625 50.6875 5.359375 
Q 44.046875 -1.421875 33.015625 -1.421875 
Q 20.359375 -1.421875 13.671875 8.265625 
Q 6.984375 17.96875 6.984375 36.375 
Q 6.984375 53.65625 15.1875 63.9375 
Q 23.390625 74.21875 37.203125 74.21875 
Q 40.921875 74.21875 44.703125 73.484375 
Q 48.484375 72.75 52.59375 71.296875 
z
" id="DejaVuSans-54"/>
      </defs>
      <g style="fill:#555555;" transform="translate(270.230256 332.318437)scale(0.1 -0.1)">
       <use xlink:href="#DejaVuSans-48"/>
       <use x="63.623047" xlink:href="#DejaVuSans-46"/>
       <use x="95.410156" xlink:href="#DejaVuSans-54"/>
      </g>
     </g>
    </g>
    <g id="xtick_5">
     <g id="line2d_9">
      <path clip-path="url(#pd9e8b05eaa)" d="M 353.425455 317.72 
L 353.425455 13.32 
" style="fill:none;stroke:#ffffff;stroke-linecap:square;stroke-width:0.8;"/>
     </g>
     <g id="line2d_10">
      <g>
       <use style="fill:#555555;stroke:#555555;stroke-width:0.8;" x="353.425455" xlink:href="#mb3dc11773b" y="317.72"/>
      </g>
     </g>
     <g id="text_5">
      <!-- 0.8 -->
      <defs>
       <path d="M 31.78125 34.625 
Q 24.75 34.625 20.71875 30.859375 
Q 16.703125 27.09375 16.703125 20.515625 
Q 16.703125 13.921875 20.71875 10.15625 
Q 24.75 6.390625 31.78125 6.390625 
Q 38.8125 6.390625 42.859375 10.171875 
Q 46.921875 13.96875 46.921875 20.515625 
Q 46.921875 27.09375 42.890625 30.859375 
Q 38.875 34.625 31.78125 34.625 
z
M 21.921875 38.8125 
Q 15.578125 40.375 12.03125 44.71875 
Q 8.5 49.078125 8.5 55.328125 
Q 8.5 64.0625 14.71875 69.140625 
Q 20.953125 74.21875 31.78125 74.21875 
Q 42.671875 74.21875 48.875 69.140625 
Q 55.078125 64.0625 55.078125 55.328125 
Q 55.078125 49.078125 51.53125 44.71875 
Q 48 40.375 41.703125 38.8125 
Q 48.828125 37.15625 52.796875 32.3125 
Q 56.78125 27.484375 56.78125 20.515625 
Q 56.78125 9.90625 50.3125 4.234375 
Q 43.84375 -1.421875 31.78125 -1.421875 
Q 19.734375 -1.421875 13.25 4.234375 
Q 6.78125 9.90625 6.78125 20.515625 
Q 6.78125 27.484375 10.78125 32.3125 
Q 14.796875 37.15625 21.921875 38.8125 
z
M 18.3125 54.390625 
Q 18.3125 48.734375 21.84375 45.5625 
Q 25.390625 42.390625 31.78125 42.390625 
Q 38.140625 42.390625 41.71875 45.5625 
Q 45.3125 48.734375 45.3125 54.390625 
Q 45.3125 60.0625 41.71875 63.234375 
Q 38.140625 66.40625 31.78125 66.40625 
Q 25.390625 66.40625 21.84375 63.234375 
Q 18.3125 60.0625 18.3125 54.390625 
z
" id="DejaVuSans-56"/>
      </defs>
      <g style="fill:#555555;" transform="translate(345.473892 332.318437)scale(0.1 -0.1)">
       <use xlink:href="#DejaVuSans-48"/>
       <use x="63.623047" xlink:href="#DejaVuSans-46"/>
       <use x="95.410156" xlink:href="#DejaVuSans-56"/>
      </g>
     </g>
    </g>
    <g id="xtick_6">
     <g id="line2d_11">
      <path clip-path="url(#pd9e8b05eaa)" d="M 428.669091 317.72 
L 428.669091 13.32 
" style="fill:none;stroke:#ffffff;stroke-linecap:square;stroke-width:0.8;"/>
     </g>
     <g id="line2d_12">
      <g>
       <use style="fill:#555555;stroke:#555555;stroke-width:0.8;" x="428.669091" xlink:href="#mb3dc11773b" y="317.72"/>
      </g>
     </g>
     <g id="text_6">
      <!-- 1.0 -->
      <defs>
       <path d="M 12.40625 8.296875 
L 28.515625 8.296875 
L 28.515625 63.921875 
L 10.984375 60.40625 
L 10.984375 69.390625 
L 28.421875 72.90625 
L 38.28125 72.90625 
L 38.28125 8.296875 
L 54.390625 8.296875 
L 54.390625 0 
L 12.40625 0 
z
" id="DejaVuSans-49"/>
      </defs>
      <g style="fill:#555555;" transform="translate(420.717528 332.318437)scale(0.1 -0.1)">
       <use xlink:href="#DejaVuSans-49"/>
       <use x="63.623047" xlink:href="#DejaVuSans-46"/>
       <use x="95.410156" xlink:href="#DejaVuSans-48"/>
      </g>
     </g>
    </g>
   </g>
   <g id="matplotlib.axis_2">
    <g id="ytick_1">
     <g id="line2d_13">
      <path clip-path="url(#pd9e8b05eaa)" d="M 33.64 303.883636 
L 447.48 303.883636 
" style="fill:none;stroke:#ffffff;stroke-linecap:square;stroke-width:0.8;"/>
     </g>
     <g id="line2d_14">
      <defs>
       <path d="M 0 0 
L -3.5 0 
" id="m155bef17b8" style="stroke:#555555;stroke-width:0.8;"/>
      </defs>
      <g>
       <use style="fill:#555555;stroke:#555555;stroke-width:0.8;" x="33.64" xlink:href="#m155bef17b8" y="303.883636"/>
      </g>
     </g>
     <g id="text_7">
      <!-- 0.0 -->
      <g style="fill:#555555;" transform="translate(10.736875 307.682855)scale(0.1 -0.1)">
       <use xlink:href="#DejaVuSans-48"/>
       <use x="63.623047" xlink:href="#DejaVuSans-46"/>
       <use x="95.410156" xlink:href="#DejaVuSans-48"/>
      </g>
     </g>
    </g>
    <g id="ytick_2">
     <g id="line2d_15">
      <path clip-path="url(#pd9e8b05eaa)" d="M 33.64 248.538182 
L 447.48 248.538182 
" style="fill:none;stroke:#ffffff;stroke-linecap:square;stroke-width:0.8;"/>
     </g>
     <g id="line2d_16">
      <g>
       <use style="fill:#555555;stroke:#555555;stroke-width:0.8;" x="33.64" xlink:href="#m155bef17b8" y="248.538182"/>
      </g>
     </g>
     <g id="text_8">
      <!-- 0.2 -->
      <g style="fill:#555555;" transform="translate(10.736875 252.337401)scale(0.1 -0.1)">
       <use xlink:href="#DejaVuSans-48"/>
       <use x="63.623047" xlink:href="#DejaVuSans-46"/>
       <use x="95.410156" xlink:href="#DejaVuSans-50"/>
      </g>
     </g>
    </g>
    <g id="ytick_3">
     <g id="line2d_17">
      <path clip-path="url(#pd9e8b05eaa)" d="M 33.64 193.192727 
L 447.48 193.192727 
" style="fill:none;stroke:#ffffff;stroke-linecap:square;stroke-width:0.8;"/>
     </g>
     <g id="line2d_18">
      <g>
       <use style="fill:#555555;stroke:#555555;stroke-width:0.8;" x="33.64" xlink:href="#m155bef17b8" y="193.192727"/>
      </g>
     </g>
     <g id="text_9">
      <!-- 0.4 -->
      <g style="fill:#555555;" transform="translate(10.736875 196.991946)scale(0.1 -0.1)">
       <use xlink:href="#DejaVuSans-48"/>
       <use x="63.623047" xlink:href="#DejaVuSans-46"/>
       <use x="95.410156" xlink:href="#DejaVuSans-52"/>
      </g>
     </g>
    </g>
    <g id="ytick_4">
     <g id="line2d_19">
      <path clip-path="url(#pd9e8b05eaa)" d="M 33.64 137.847273 
L 447.48 137.847273 
" style="fill:none;stroke:#ffffff;stroke-linecap:square;stroke-width:0.8;"/>
     </g>
     <g id="line2d_20">
      <g>
       <use style="fill:#555555;stroke:#555555;stroke-width:0.8;" x="33.64" xlink:href="#m155bef17b8" y="137.847273"/>
      </g>
     </g>
     <g id="text_10">
      <!-- 0.6 -->
      <g style="fill:#555555;" transform="translate(10.736875 141.646491)scale(0.1 -0.1)">
       <use xlink:href="#DejaVuSans-48"/>
       <use x="63.623047" xlink:href="#DejaVuSans-46"/>
       <use x="95.410156" xlink:href="#DejaVuSans-54"/>
      </g>
     </g>
    </g>
    <g id="ytick_5">
     <g id="line2d_21">
      <path clip-path="url(#pd9e8b05eaa)" d="M 33.64 82.501818 
L 447.48 82.501818 
" style="fill:none;stroke:#ffffff;stroke-linecap:square;stroke-width:0.8;"/>
     </g>
     <g id="line2d_22">
      <g>
       <use style="fill:#555555;stroke:#555555;stroke-width:0.8;" x="33.64" xlink:href="#m155bef17b8" y="82.501818"/>
      </g>
     </g>
     <g id="text_11">
      <!-- 0.8 -->
      <g style="fill:#555555;" transform="translate(10.736875 86.301037)scale(0.1 -0.1)">
       <use xlink:href="#DejaVuSans-48"/>
       <use x="63.623047" xlink:href="#DejaVuSans-46"/>
       <use x="95.410156" xlink:href="#DejaVuSans-56"/>
      </g>
     </g>
    </g>
    <g id="ytick_6">
     <g id="line2d_23">
      <path clip-path="url(#pd9e8b05eaa)" d="M 33.64 27.156364 
L 447.48 27.156364 
" style="fill:none;stroke:#ffffff;stroke-linecap:square;stroke-width:0.8;"/>
     </g>
     <g id="line2d_24">
      <g>
       <use style="fill:#555555;stroke:#555555;stroke-width:0.8;" x="33.64" xlink:href="#m155bef17b8" y="27.156364"/>
      </g>
     </g>
     <g id="text_12">
      <!-- 1.0 -->
      <g style="fill:#555555;" transform="translate(10.736875 30.955582)scale(0.1 -0.1)">
       <use xlink:href="#DejaVuSans-49"/>
       <use x="63.623047" xlink:href="#DejaVuSans-46"/>
       <use x="95.410156" xlink:href="#DejaVuSans-48"/>
      </g>
     </g>
    </g>
   </g>
   <g id="line2d_25">
    <path clip-path="url(#pd9e8b05eaa)" d="M 52.450909 27.156364 
L 53.957288 87.327409 
L 55.087073 124.92473 
L 56.216857 156.917531 
L 57.346641 183.995091 
L 58.476426 206.78105 
L 59.60621 225.837724 
L 60.735994 241.670259 
L 61.865779 254.730647 
L 62.995563 265.421591 
L 64.125347 274.10023 
L 65.255131 281.081711 
L 66.384916 286.642618 
L 67.5147 291.024258 
L 68.644484 294.435794 
L 69.774269 297.057238 
L 70.904053 299.042295 
L 72.033837 300.52106 
L 73.163622 301.602574 
L 74.293406 302.377226 
L 75.42319 302.919016 
L 76.92957 303.380586 
L 78.812543 303.684713 
L 81.448707 303.843488 
L 87.474223 303.883606 
L 428.669091 303.883636 
L 428.669091 303.883636 
" style="fill:none;stroke:#e24a33;stroke-linecap:square;stroke-width:1.5;"/>
   </g>
   <g id="line2d_26">
    <path clip-path="url(#pd9e8b05eaa)" d="M 52.450909 303.883636 
L 53.580693 259.381776 
L 54.710478 224.622339 
L 55.840262 198.247857 
L 56.593452 184.7136 
L 57.346641 174.028111 
L 58.099831 165.883556 
L 58.85302 159.994575 
L 59.60621 156.097215 
L 59.982805 154.818506 
L 60.359399 153.947896 
L 60.735994 153.457953 
L 61.112589 153.322393 
L 61.489184 153.516051 
L 61.865779 154.014848 
L 62.242373 154.795763 
L 62.995563 157.116984 
L 63.748752 160.315611 
L 64.878537 166.436674 
L 66.384916 176.395346 
L 68.644484 193.483227 
L 73.163622 228.255721 
L 75.42319 243.604933 
L 77.306164 254.812011 
L 79.189138 264.488491 
L 80.695517 271.146578 
L 82.201896 276.89602 
L 83.708276 281.808114 
L 85.214655 285.965144 
L 86.721034 289.453378 
L 88.227413 292.357694 
L 89.733792 294.757809 
L 91.240171 296.726139 
L 92.74655 298.327193 
L 94.252929 299.61797 
L 95.759308 300.648563 
L 97.642282 301.637033 
L 99.525256 302.359869 
L 101.784825 302.960981 
L 104.420988 303.398973 
L 107.810341 303.695136 
L 112.329479 303.843506 
L 122.497538 303.883576 
L 428.669091 303.883636 
L 428.669091 303.883636 
" style="fill:none;stroke:#348abd;stroke-linecap:square;stroke-width:1.5;"/>
   </g>
   <g id="line2d_27">
    <path clip-path="url(#pd9e8b05eaa)" d="M 52.450909 303.883636 
L 52.827504 303.680715 
L 53.204099 303.09172 
L 53.580693 302.145446 
L 54.333883 299.290618 
L 55.087073 295.32448 
L 56.216857 287.705918 
L 57.723236 275.312736 
L 59.982805 254.221365 
L 63.372158 222.617086 
L 65.255131 207.218139 
L 66.761511 196.633837 
L 68.26789 187.815715 
L 69.397674 182.427161 
L 70.527458 178.106391 
L 71.657243 174.845571 
L 72.410432 173.248227 
L 73.163622 172.09888 
L 73.916811 171.383155 
L 74.670001 171.084385 
L 75.42319 171.183958 
L 76.17638 171.661639 
L 76.92957 172.495883 
L 77.682759 173.664128 
L 78.812543 175.991613 
L 79.942328 178.937543 
L 81.448707 183.687155 
L 82.955086 189.202222 
L 84.83806 196.896898 
L 87.850818 210.307299 
L 94.252929 239.096053 
L 96.889093 249.862033 
L 99.148661 258.277877 
L 101.40823 265.85932 
L 103.667799 272.573661 
L 105.550773 277.508324 
L 107.433746 281.860312 
L 109.31672 285.657663 
L 111.199694 288.936323 
L 113.082668 291.737717 
L 114.965642 294.1066 
L 116.848616 296.089172 
L 118.73159 297.731478 
L 120.614564 299.078074 
L 122.497538 300.170972 
L 124.757106 301.201769 
L 127.016675 301.982253 
L 129.652838 302.644144 
L 132.665597 303.153744 
L 136.431544 303.533759 
L 141.327276 303.768826 
L 148.859172 303.871668 
L 178.610159 303.883636 
L 428.669091 303.883636 
L 428.669091 303.883636 
" style="fill:none;stroke:#988ed5;stroke-linecap:square;stroke-width:1.5;"/>
   </g>
   <g id="line2d_28">
    <path clip-path="url(#pd9e8b05eaa)" d="M 52.450909 303.883636 
L 54.333883 303.776783 
L 55.463667 303.466622 
L 56.593452 302.851434 
L 57.723236 301.858876 
L 58.85302 300.436733 
L 59.982805 298.550928 
L 61.112589 296.183605 
L 62.242373 293.3313 
L 63.748752 288.791301 
L 65.255131 283.45812 
L 67.138105 275.799595 
L 69.397674 265.426949 
L 72.410432 250.283374 
L 78.435949 219.534851 
L 80.695517 209.157629 
L 82.578491 201.40436 
L 84.461465 194.631922 
L 85.967844 190.000707 
L 87.474223 186.116061 
L 88.604008 183.709348 
L 89.733792 181.743955 
L 90.863576 180.221273 
L 91.993361 179.138558 
L 92.74655 178.658114 
L 93.49974 178.36763 
L 94.252929 178.263725 
L 95.006119 178.342453 
L 95.759308 178.599349 
L 96.512498 179.029475 
L 97.642282 179.987622 
L 98.772067 181.303667 
L 99.901851 182.956264 
L 101.40823 185.643874 
L 102.914609 188.832727 
L 104.797583 193.433867 
L 107.057152 199.702227 
L 109.693315 207.789537 
L 113.459263 220.204013 
L 120.614564 243.999437 
L 124.003917 254.39151 
L 126.64008 261.811345 
L 129.276244 268.562753 
L 131.535812 273.785367 
L 133.795381 278.477911 
L 136.054949 282.646039 
L 138.314518 286.306507 
L 140.574087 289.484799 
L 142.457061 291.788014 
L 144.340035 293.799622 
L 146.599603 295.860473 
L 148.859172 297.574477 
L 151.118741 298.982541 
L 153.378309 300.124761 
L 155.637878 301.039415 
L 158.274041 301.866326 
L 161.2868 302.556684 
L 164.676153 303.086211 
L 168.818695 303.48268 
L 174.091022 303.737183 
L 181.999512 303.862218 
L 204.218604 303.883636 
L 428.669091 303.883636 
L 428.669091 303.883636 
" style="fill:none;stroke:#777777;stroke-linecap:square;stroke-width:1.5;"/>
   </g>
   <g id="line2d_29">
    <path clip-path="url(#pd9e8b05eaa)" d="M 52.450909 303.883636 
L 58.476426 303.785832 
L 60.735994 303.554282 
L 62.618968 303.173595 
L 64.501942 302.553923 
L 66.008321 301.84266 
L 67.5147 300.905295 
L 69.021079 299.71229 
L 70.527458 298.23722 
L 72.033837 296.457517 
L 73.540217 294.355115 
L 75.046596 291.916969 
L 76.92957 288.386087 
L 78.812543 284.316886 
L 80.695517 279.721587 
L 82.955086 273.551448 
L 85.214655 266.736009 
L 87.850818 258.104152 
L 91.616766 244.890534 
L 99.901851 215.441444 
L 102.538014 206.94513 
L 104.797583 200.314032 
L 106.680557 195.345274 
L 108.563531 190.951343 
L 110.446505 187.185977 
L 111.952884 184.655618 
L 113.459263 182.572361 
L 114.589047 181.310926 
L 115.718832 180.311487 
L 116.848616 179.576021 
L 117.9784 179.105026 
L 119.108185 178.897542 
L 120.237969 178.951182 
L 121.367753 179.26217 
L 122.497538 179.825397 
L 123.627322 180.634478 
L 124.757106 181.681828 
L 126.263485 183.433729 
L 127.769864 185.570173 
L 129.276244 188.064897 
L 131.159217 191.643394 
L 133.042191 195.677146 
L 135.30176 201.030025 
L 137.937923 207.840282 
L 141.327276 217.217441 
L 153.754904 252.271928 
L 156.767662 259.894039 
L 159.78042 266.901645 
L 162.416584 272.473923 
L 165.052747 277.497496 
L 167.312316 281.361335 
L 169.571885 284.822138 
L 171.831453 287.891981 
L 174.091022 290.588542 
L 176.350591 292.933845 
L 178.610159 294.953111 
L 180.869728 296.673716 
L 183.129297 298.124255 
L 185.388865 299.333706 
L 188.025029 300.478191 
L 190.661192 301.37724 
L 193.67395 302.156519 
L 197.063303 302.78215 
L 200.829251 303.243868 
L 205.348388 303.573625 
L 211.373905 303.783101 
L 221.541964 303.875941 
L 272.758853 303.883636 
L 428.669091 303.883636 
L 428.669091 303.883636 
" style="fill:none;stroke:#fbc15e;stroke-linecap:square;stroke-width:1.5;"/>
   </g>
   <g id="line2d_30">
    <path clip-path="url(#pd9e8b05eaa)" d="M 52.450909 303.883636 
L 67.138105 303.778173 
L 71.657243 303.503868 
L 75.046596 303.067511 
L 77.682759 302.520339 
L 80.318923 301.731268 
L 82.578491 300.816991 
L 84.83806 299.6415 
L 86.721034 298.433692 
L 88.604008 296.994355 
L 90.486982 295.302089 
L 92.369955 293.337274 
L 94.252929 291.082794 
L 96.135903 288.524712 
L 98.395472 285.040257 
L 100.65504 281.094888 
L 102.914609 276.689145 
L 105.174178 271.834159 
L 107.810341 265.632419 
L 110.823099 257.90433 
L 114.212452 248.532475 
L 118.73159 235.282847 
L 127.39327 209.718656 
L 130.406028 201.538101 
L 133.042191 194.972948 
L 135.30176 189.897525 
L 137.184734 186.118417 
L 139.067708 182.792784 
L 140.950682 179.956419 
L 142.457061 178.059986 
L 143.96344 176.508568 
L 145.469819 175.312069 
L 146.599603 174.652036 
L 147.729388 174.197749 
L 148.859172 173.950329 
L 149.988956 173.910011 
L 151.118741 174.076141 
L 152.248525 174.447191 
L 153.378309 175.020764 
L 154.508094 175.793615 
L 156.014473 177.126917 
L 157.520852 178.795307 
L 159.027231 180.784542 
L 160.910205 183.696978 
L 162.793179 187.048242 
L 165.052747 191.591167 
L 167.312316 196.629702 
L 169.948479 203.024364 
L 173.337832 211.854453 
L 178.610159 226.317503 
L 185.01227 243.791968 
L 188.778218 253.456107 
L 192.167571 261.52128 
L 195.180329 268.086127 
L 197.816493 273.318361 
L 200.452656 278.051747 
L 203.08882 282.281107 
L 205.348388 285.510467 
L 207.607957 288.385782 
L 209.867526 290.922616 
L 212.127094 293.140159 
L 214.386663 295.060304 
L 216.646232 296.706813 
L 218.9058 298.104556 
L 221.541964 299.4546 
L 224.178127 300.540315 
L 226.814291 301.400142 
L 229.827049 302.152455 
L 233.216402 302.763443 
L 236.98235 303.220765 
L 241.878082 303.573331 
L 248.280193 303.786753 
L 258.824847 303.876506 
L 314.937468 303.883636 
L 428.669091 303.883636 
L 428.669091 303.883636 
" style="fill:none;stroke:#8eba42;stroke-linecap:square;stroke-width:1.5;"/>
   </g>
   <g id="line2d_31">
    <path clip-path="url(#pd9e8b05eaa)" d="M 52.450909 303.883636 
L 82.955086 303.774433 
L 89.733792 303.519606 
L 94.629524 303.120451 
L 98.395472 302.609024 
L 101.784825 301.931951 
L 104.797583 301.104521 
L 107.433746 300.164686 
L 110.06991 298.984384 
L 112.329479 297.751425 
L 114.589047 296.287221 
L 116.848616 294.566038 
L 119.108185 292.562593 
L 121.367753 290.252728 
L 123.627322 287.61415 
L 125.886891 284.62726 
L 128.146459 281.27605 
L 130.406028 277.549089 
L 133.042191 272.718624 
L 135.678355 267.371104 
L 138.314518 261.522247 
L 141.327276 254.263743 
L 144.716629 245.451663 
L 148.482577 235.024169 
L 154.508094 217.575444 
L 160.53361 200.341543 
L 163.922963 191.304244 
L 166.559126 184.829982 
L 168.818695 179.773004 
L 171.078264 175.249692 
L 172.961238 171.937353 
L 174.844211 169.078266 
L 176.350591 167.138078 
L 177.85697 165.521054 
L 179.363349 164.238404 
L 180.869728 163.299046 
L 181.999512 162.823844 
L 183.129297 162.547345 
L 184.259081 162.470636 
L 185.388865 162.594019 
L 186.51865 162.917008 
L 187.648434 163.438333 
L 188.778218 164.155948 
L 190.284597 165.413132 
L 191.790976 167.005439 
L 193.297356 168.921827 
L 195.180329 171.752699 
L 197.063303 175.038791 
L 198.946277 178.745206 
L 201.205846 183.692702 
L 203.842009 190.060371 
L 206.854767 197.969081 
L 210.620715 208.516321 
L 224.178127 247.163017 
L 227.56748 255.854499 
L 230.580238 262.987389 
L 233.216402 268.716719 
L 235.852565 273.939572 
L 238.488729 278.643664 
L 240.748297 282.263308 
L 243.007866 285.509915 
L 245.267435 288.396319 
L 247.527003 290.939638 
L 249.786572 293.160325 
L 252.046141 295.081281 
L 254.305709 296.727055 
L 256.565278 298.123122 
L 259.201441 299.47061 
L 261.837605 300.553583 
L 264.473768 301.410788 
L 267.486527 302.160464 
L 270.87588 302.769052 
L 274.641827 303.224392 
L 279.537559 303.575258 
L 285.939671 303.787483 
L 296.484324 303.876589 
L 352.973541 303.883636 
L 428.669091 303.883636 
L 428.669091 303.883636 
" style="fill:none;stroke:#ffb5b8;stroke-linecap:square;stroke-width:1.5;"/>
   </g>
   <g id="line2d_32">
    <path clip-path="url(#pd9e8b05eaa)" d="M 52.450909 303.883636 
L 120.614564 303.773621 
L 127.39327 303.517394 
L 132.289002 303.116354 
L 136.054949 302.60275 
L 139.444302 301.923032 
L 142.457061 301.09261 
L 145.093224 300.14961 
L 147.729388 298.96559 
L 149.988956 297.728988 
L 152.248525 296.260712 
L 154.508094 294.535029 
L 156.767662 292.526671 
L 159.027231 290.211504 
L 161.2868 287.567273 
L 163.546368 284.57443 
L 165.805937 281.217038 
L 168.065506 277.483748 
L 170.701669 272.645851 
L 173.337832 267.291024 
L 175.973996 261.435189 
L 178.986754 254.169393 
L 182.376107 245.350372 
L 186.142055 234.917272 
L 192.167571 217.465573 
L 197.816493 201.279833 
L 201.205846 192.175502 
L 203.842009 185.630007 
L 206.478173 179.693043 
L 208.737741 175.179224 
L 210.620715 171.87562 
L 212.503689 169.025925 
L 214.010068 167.093662 
L 215.516447 165.484871 
L 217.022826 164.210704 
L 218.529206 163.280022 
L 219.65899 162.811418 
L 220.788774 162.541566 
L 221.918559 162.471526 
L 223.048343 162.601574 
L 224.178127 162.931199 
L 225.307912 163.459105 
L 226.437696 164.183218 
L 227.944075 165.448897 
L 229.450454 167.049449 
L 230.956833 168.973779 
L 232.839807 171.814068 
L 234.722781 175.108923 
L 236.605755 178.82336 
L 238.865324 183.779402 
L 241.501487 190.155424 
L 244.514245 198.071429 
L 248.280193 208.624339 
L 261.837605 247.263049 
L 265.226958 255.947287 
L 268.239716 263.072695 
L 270.87588 268.794943 
L 273.512043 274.010438 
L 276.148206 278.707098 
L 278.407775 282.320446 
L 280.667344 285.560931 
L 282.926912 288.441466 
L 285.186481 290.979233 
L 287.44605 293.194731 
L 289.705618 295.110895 
L 291.965187 296.752297 
L 294.224756 298.144421 
L 296.860919 299.487849 
L 299.497083 300.567328 
L 302.133246 301.421579 
L 305.146004 302.168484 
L 308.535357 302.774642 
L 312.301305 303.228003 
L 317.197037 303.577174 
L 323.599148 303.788208 
L 334.143802 303.876671 
L 391.009613 303.883636 
L 428.669091 303.883636 
L 428.669091 303.883636 
" style="fill:none;stroke:#e24a33;stroke-linecap:square;stroke-width:1.5;"/>
   </g>
   <g id="line2d_33">
    <path clip-path="url(#pd9e8b05eaa)" d="M 52.450909 303.883636 
L 158.274041 303.772805 
L 165.052747 303.515171 
L 169.948479 303.112239 
L 173.714427 302.59645 
L 177.10378 301.914079 
L 180.116538 301.080659 
L 182.752702 300.134484 
L 185.388865 298.946739 
L 187.648434 297.706487 
L 189.908003 296.234131 
L 192.167571 294.503942 
L 194.42714 292.490664 
L 196.686709 290.170189 
L 198.946277 287.520299 
L 201.205846 284.521499 
L 203.465415 281.157921 
L 205.724983 277.4183 
L 208.361147 272.572972 
L 210.99731 267.210841 
L 213.633473 261.348036 
L 216.646232 254.074958 
L 220.035585 245.249012 
L 223.801532 234.810333 
L 230.203644 216.257594 
L 235.852565 200.133764 
L 239.241918 191.11174 
L 241.878082 184.653593 
L 244.13765 179.61323 
L 246.397219 175.108923 
L 248.280193 171.814068 
L 250.163167 168.973779 
L 251.669546 167.049449 
L 253.175925 165.448897 
L 254.682304 164.183218 
L 256.188683 163.261217 
L 257.318468 162.799213 
L 258.448252 162.536008 
L 259.578036 162.472638 
L 260.707821 162.609351 
L 261.837605 162.945611 
L 262.967389 163.480095 
L 264.097174 164.210704 
L 265.603553 165.484871 
L 267.109932 167.093662 
L 268.616311 169.025925 
L 270.499285 171.87562 
L 272.382259 175.179224 
L 274.265233 178.901667 
L 276.524801 183.866234 
L 279.160965 190.250584 
L 282.173723 198.173852 
L 285.939671 208.732393 
L 299.120488 246.360196 
L 302.509841 255.109033 
L 305.522599 262.301413 
L 308.158762 268.0872 
L 310.794926 273.368822 
L 313.431089 278.132387 
L 315.690658 281.802465 
L 317.950227 285.098174 
L 320.209795 288.031699 
L 322.469364 290.619645 
L 324.728933 292.882071 
L 326.988501 294.841601 
L 329.24807 296.522607 
L 331.507639 297.950481 
L 334.143802 299.330747 
L 336.779965 300.441951 
L 339.416129 301.323068 
L 342.428887 302.095186 
L 345.81824 302.723482 
L 349.584188 303.194907 
L 354.103325 303.539016 
L 360.128842 303.765227 
L 369.543711 303.870235 
L 404.19043 303.883636 
L 428.669091 303.883636 
L 428.669091 303.883636 
" style="fill:none;stroke:#348abd;stroke-linecap:square;stroke-width:1.5;"/>
   </g>
   <g id="line2d_34">
    <path clip-path="url(#pd9e8b05eaa)" d="M 52.450909 303.883636 
L 195.556924 303.779974 
L 202.33563 303.534779 
L 207.231362 303.148625 
L 210.99731 302.652235 
L 214.386663 301.993459 
L 217.399421 301.186739 
L 220.035585 300.268855 
L 222.671748 299.114347 
L 224.931317 297.906691 
L 227.190885 296.470795 
L 229.450454 294.780909 
L 231.710023 292.811668 
L 233.969591 290.538744 
L 236.22916 287.939585 
L 238.488729 284.994233 
L 240.748297 281.686214 
L 243.007866 278.003508 
L 245.267435 273.939572 
L 247.903598 268.716719 
L 250.539762 262.987389 
L 253.55252 255.854499 
L 256.565278 248.160067 
L 260.331226 237.893161 
L 265.603553 222.742026 
L 273.135448 201.070868 
L 276.524801 191.981192 
L 279.160965 185.451344 
L 281.797128 179.533567 
L 284.056697 175.038791 
L 285.939671 171.752699 
L 287.822644 168.921827 
L 289.329024 167.005439 
L 290.835403 165.413132 
L 292.341782 164.155948 
L 293.848161 163.242631 
L 294.977945 162.787229 
L 296.10773 162.530673 
L 297.237514 162.473972 
L 298.367298 162.61735 
L 299.497083 162.960243 
L 300.626867 163.501302 
L 301.756651 164.238404 
L 303.26303 165.521054 
L 304.769409 167.138078 
L 306.275789 169.078266 
L 308.158762 171.937353 
L 310.041736 175.249692 
L 311.92471 178.980126 
L 314.184279 183.953197 
L 316.820442 190.34585 
L 319.8332 198.276351 
L 323.599148 208.840485 
L 336.779965 246.460797 
L 340.169318 255.202521 
L 343.182077 262.387502 
L 345.81824 268.166252 
L 348.454403 273.440537 
L 351.090567 278.196667 
L 353.350136 281.860434 
L 355.609704 285.149994 
L 357.869273 288.077612 
L 360.128842 290.65996 
L 362.38841 292.917146 
L 364.647979 294.87183 
L 366.907548 296.548408 
L 369.167116 297.972281 
L 371.80328 299.348421 
L 374.439443 300.456068 
L 377.075607 301.33417 
L 380.088365 302.103456 
L 383.477718 302.729261 
L 387.243665 303.198652 
L 391.762803 303.541119 
L 397.788319 303.76609 
L 407.203189 303.870375 
L 428.669091 303.883636 
L 428.669091 303.883636 
" style="fill:none;stroke:#988ed5;stroke-linecap:square;stroke-width:1.5;"/>
   </g>
   <g id="line2d_35">
    <path clip-path="url(#pd9e8b05eaa)" d="M 52.450909 303.883636 
L 233.216402 303.779197 
L 239.995108 303.532644 
L 244.89084 303.144654 
L 248.656788 302.646145 
L 252.046141 301.984834 
L 255.058899 301.175368 
L 257.695062 300.254806 
L 260.331226 299.09757 
L 262.590794 297.887801 
L 264.850363 296.450351 
L 267.109932 294.759942 
L 269.3695 292.79184 
L 271.629069 290.52254 
L 273.888638 287.930539 
L 276.148206 284.997186 
L 278.407775 281.707613 
L 280.667344 278.051747 
L 283.303507 273.318361 
L 285.939671 268.086127 
L 288.575834 262.37452 
L 291.588592 255.305486 
L 294.977945 246.757396 
L 299.120488 235.67249 
L 310.794926 203.975934 
L 313.807684 196.629702 
L 316.443847 190.797434 
L 318.703416 186.34479 
L 320.58639 183.078147 
L 322.469364 180.258019 
L 323.975743 178.347535 
L 325.482122 176.761672 
L 326.988501 175.51409 
L 328.49488 174.616022 
L 329.624665 174.177156 
L 330.754449 173.942506 
L 331.884233 173.913892 
L 333.014018 174.09226 
L 334.143802 174.477672 
L 335.273586 175.069303 
L 336.403371 175.86544 
L 337.90975 177.240468 
L 339.416129 178.965799 
L 340.922508 181.030197 
L 342.805482 184.066206 
L 344.688456 187.577829 
L 346.57143 191.527114 
L 348.830998 196.783184 
L 351.467162 203.523146 
L 354.47992 211.852245 
L 358.622462 223.996493 
L 367.284142 249.603396 
L 370.673495 258.904332 
L 373.686254 266.552103 
L 376.322417 272.673718 
L 378.95858 278.208415 
L 381.218149 282.461402 
L 383.477718 286.252688 
L 385.737286 289.585118 
L 387.996855 292.4711 
L 389.879829 294.549891 
L 391.762803 296.348946 
L 393.645777 297.886971 
L 395.905345 299.417391 
L 398.164914 300.640292 
L 400.424483 301.595342 
L 402.684051 302.322125 
L 405.320215 302.93253 
L 408.332973 303.386064 
L 412.098921 303.695552 
L 416.994653 303.84887 
L 427.539307 303.883636 
L 428.669091 303.883636 
L 428.669091 303.883636 
" style="fill:none;stroke:#777777;stroke-linecap:square;stroke-width:1.5;"/>
   </g>
   <g id="line2d_36">
    <path clip-path="url(#pd9e8b05eaa)" d="M 52.450909 303.883636 
L 270.12269 303.775062 
L 276.524801 303.531648 
L 281.420533 303.126655 
L 285.186481 302.599039 
L 288.575834 301.891956 
L 291.588592 301.019286 
L 294.224756 300.020248 
L 296.860919 298.75731 
L 299.120488 297.430933 
L 301.380056 295.848977 
L 303.639625 293.98256 
L 305.899194 291.803586 
L 308.158762 289.285633 
L 310.418331 286.404941 
L 312.6779 283.141508 
L 314.937468 279.480294 
L 317.197037 275.412529 
L 319.8332 270.151994 
L 322.469364 264.350978 
L 325.482122 257.102892 
L 328.49488 249.275588 
L 332.260828 238.862314 
L 344.688456 203.883544 
L 347.324619 197.404123 
L 349.584188 192.415698 
L 351.467162 188.741252 
L 353.350136 185.570173 
L 354.856515 183.433729 
L 356.362894 181.681828 
L 357.869273 180.337912 
L 358.999057 179.609997 
L 360.128842 179.130201 
L 361.258626 178.904493 
L 362.38841 178.937543 
L 363.518195 179.232668 
L 364.647979 179.791785 
L 365.777763 180.61537 
L 366.907548 181.702434 
L 368.037332 183.050505 
L 369.543711 185.246877 
L 371.05009 187.886537 
L 372.556469 190.951343 
L 374.439443 195.345274 
L 376.322417 200.314032 
L 378.581986 206.94513 
L 381.218149 215.441444 
L 384.607502 227.214323 
L 394.398966 261.882352 
L 397.03513 270.218731 
L 399.294698 276.722412 
L 401.554267 282.540724 
L 403.437241 286.822647 
L 405.320215 290.569391 
L 407.203189 293.777448 
L 408.709568 295.962768 
L 410.215947 297.82164 
L 411.722326 299.370919 
L 413.228705 300.632101 
L 414.735084 301.630715 
L 416.241463 302.395596 
L 418.124437 303.070863 
L 420.007411 303.494146 
L 422.26698 303.76021 
L 425.279738 303.87316 
L 428.669091 303.883636 
L 428.669091 303.883636 
" style="fill:none;stroke:#fbc15e;stroke-linecap:square;stroke-width:1.5;"/>
   </g>
   <g id="line2d_37">
    <path clip-path="url(#pd9e8b05eaa)" d="M 52.450909 303.883636 
L 305.522599 303.77748 
L 311.548115 303.532941 
L 316.067253 303.132159 
L 319.456606 302.627059 
L 322.469364 301.966187 
L 325.105527 301.172283 
L 327.741691 300.124761 
L 330.001259 298.982541 
L 332.260828 297.574477 
L 334.520397 295.860473 
L 336.403371 294.168918 
L 338.286345 292.212959 
L 340.169318 289.969809 
L 342.052292 287.418045 
L 343.935266 284.538316 
L 346.194835 280.626711 
L 348.454403 276.197834 
L 350.713972 271.240169 
L 352.973541 265.754567 
L 355.609704 258.709617 
L 358.245868 251.024841 
L 361.258626 241.582388 
L 365.777763 226.56303 
L 371.426685 207.789537 
L 374.062848 199.702227 
L 376.322417 193.433867 
L 378.205391 188.832727 
L 379.71177 185.643874 
L 381.218149 182.956264 
L 382.347933 181.303667 
L 383.477718 179.987622 
L 384.607502 179.029475 
L 385.737286 178.448928 
L 386.490476 178.280527 
L 387.243665 178.292589 
L 387.996855 178.489324 
L 388.750045 178.874403 
L 389.503234 179.450905 
L 390.633018 180.679732 
L 391.762803 182.349876 
L 392.892587 184.462745 
L 394.022371 187.015492 
L 395.528751 191.089916 
L 397.03513 195.90173 
L 398.541509 201.40436 
L 400.424483 209.157629 
L 402.684051 219.534851 
L 405.69681 234.630607 
L 412.098921 267.229737 
L 414.358489 277.411306 
L 416.241463 284.861847 
L 417.747842 290.0032 
L 419.254221 294.33563 
L 420.384006 297.026705 
L 421.51379 299.232464 
L 422.643574 300.960968 
L 423.773359 302.235273 
L 424.903143 303.095288 
L 426.032927 303.599709 
L 427.162712 303.828047 
L 428.669091 303.883636 
L 428.669091 303.883636 
" style="fill:none;stroke:#8eba42;stroke-linecap:square;stroke-width:1.5;"/>
   </g>
   <g id="line2d_38">
    <path clip-path="url(#pd9e8b05eaa)" d="M 52.450909 303.883636 
L 339.416129 303.779225 
L 344.688456 303.533759 
L 348.454403 303.153744 
L 351.467162 302.644144 
L 354.103325 301.982253 
L 356.362894 301.201769 
L 358.622462 300.170972 
L 360.505436 299.078074 
L 362.38841 297.731478 
L 364.271384 296.089172 
L 366.154358 294.1066 
L 368.037332 291.737717 
L 369.920306 288.936323 
L 371.80328 285.657663 
L 373.686254 281.860312 
L 375.569227 277.508324 
L 377.452201 272.573661 
L 379.335175 267.038897 
L 381.594744 259.60079 
L 383.854312 251.319934 
L 386.490476 240.689837 
L 389.503234 227.523165 
L 397.411724 192.189597 
L 399.294698 185.001431 
L 400.801077 180.042901 
L 401.930862 176.908886 
L 403.060646 174.366238 
L 403.813836 173.039698 
L 404.567025 172.03558 
L 405.320215 171.376854 
L 406.073404 171.085609 
L 406.826594 171.182772 
L 407.579783 171.687806 
L 408.332973 172.618394 
L 409.086163 173.9901 
L 409.839352 175.816017 
L 410.592542 178.106391 
L 411.722326 182.427161 
L 412.85211 187.815715 
L 413.981895 194.258139 
L 415.488274 204.415634 
L 416.994653 216.199174 
L 418.877627 232.772936 
L 424.526548 284.807972 
L 425.656333 292.985127 
L 426.409522 297.434114 
L 427.162712 300.869558 
L 427.915901 303.09172 
L 428.292496 303.680715 
L 428.669091 303.883636 
L 428.669091 303.883636 
" style="fill:none;stroke:#ffb5b8;stroke-linecap:square;stroke-width:1.5;"/>
   </g>
   <g id="line2d_39">
    <path clip-path="url(#pd9e8b05eaa)" d="M 52.450909 303.883636 
L 371.426685 303.779865 
L 375.569227 303.524075 
L 378.581986 303.110657 
L 380.841554 302.588554 
L 382.724528 301.954395 
L 384.607502 301.080198 
L 386.113881 300.162913 
L 387.62026 299.00808 
L 389.126639 297.568844 
L 390.633018 295.791732 
L 392.139398 293.616065 
L 393.645777 290.973389 
L 395.152156 287.787471 
L 396.658535 283.975643 
L 398.164914 279.45176 
L 399.671293 274.130774 
L 401.177672 267.934918 
L 402.684051 260.801514 
L 404.19043 252.692393 
L 406.073404 241.184288 
L 407.956378 228.255721 
L 410.592542 208.316713 
L 414.735084 176.395346 
L 416.241463 166.436674 
L 417.371248 160.315611 
L 418.124437 157.116984 
L 418.877627 154.795763 
L 419.254221 154.014848 
L 419.630816 153.516051 
L 420.007411 153.322393 
L 420.384006 153.457953 
L 420.760601 153.947896 
L 421.137195 154.818506 
L 421.51379 156.097215 
L 422.26698 159.994575 
L 423.020169 165.883556 
L 423.773359 174.028111 
L 424.526548 184.7136 
L 425.279738 198.247857 
L 426.032927 214.962283 
L 427.162712 246.782689 
L 428.292496 287.877626 
L 428.669091 303.883636 
L 428.669091 303.883636 
" style="fill:none;stroke:#e24a33;stroke-linecap:square;stroke-width:1.5;"/>
   </g>
   <g id="line2d_40">
    <path clip-path="url(#pd9e8b05eaa)" d="M 52.450909 303.883636 
L 401.177672 303.778156 
L 403.437241 303.530588 
L 404.94362 303.18086 
L 406.449999 302.580473 
L 407.579783 301.890917 
L 408.709568 300.920879 
L 409.839352 299.585677 
L 410.969136 297.782748 
L 412.098921 295.389292 
L 413.228705 292.259765 
L 414.358489 288.223234 
L 415.488274 283.080577 
L 416.618058 276.601544 
L 417.747842 268.521667 
L 418.877627 258.539027 
L 420.007411 246.310873 
L 421.137195 231.450097 
L 422.26698 213.521557 
L 423.396764 192.038265 
L 424.526548 166.457417 
L 425.656333 136.176284 
L 426.786117 100.527956 
L 427.915901 58.776935 
L 428.292496 43.366208 
L 428.669091 303.883636 
L 428.669091 303.883636 
" style="fill:none;stroke:#348abd;stroke-linecap:square;stroke-width:1.5;"/>
   </g>
   <g id="patch_3">
    <path d="M 33.64 317.72 
L 33.64 13.32 
" style="fill:none;stroke:#ffffff;stroke-linecap:square;stroke-linejoin:miter;"/>
   </g>
   <g id="patch_4">
    <path d="M 447.48 317.72 
L 447.48 13.32 
" style="fill:none;stroke:#ffffff;stroke-linecap:square;stroke-linejoin:miter;"/>
   </g>
   <g id="patch_5">
    <path d="M 33.64 317.72 
L 447.48 317.72 
" style="fill:none;stroke:#ffffff;stroke-linecap:square;stroke-linejoin:miter;"/>
   </g>
   <g id="patch_6">
    <path d="M 33.64 13.32 
L 447.48 13.32 
" style="fill:none;stroke:#ffffff;stroke-linecap:square;stroke-linejoin:miter;"/>
   </g>
  </g>
 </g>
 <defs>
  <clipPath id="pd9e8b05eaa">
   <rect height="304.4" width="413.84" x="33.64" y="13.32"/>
  </clipPath>
 </defs>
</svg>
